<mxfile host="app.diagrams.net" modified="2020-11-24T03:07:11.958Z" agent="5.0 (Macintosh; Intel Mac OS X 11_0_1) AppleWebKit/537.36 (KHTML, like Gecko) Chrome/87.0.4280.67 Safari/537.36" etag="PiJyFTfwHEISG-hAtmFW" version="13.10.1" type="github">
  <diagram id="JVFNfB-hLGPr9hGPItNs" name="Page-1">
    <mxGraphModel dx="946" dy="557" grid="0" gridSize="10" guides="1" tooltips="1" connect="1" arrows="1" fold="1" page="1" pageScale="1" pageWidth="827" pageHeight="1169" math="0" shadow="0">
      <root>
        <mxCell id="0" />
        <mxCell id="1" parent="0" />
        <mxCell id="s89FVdqCnXC3zbDjaw7U-5" style="edgeStyle=orthogonalEdgeStyle;rounded=0;orthogonalLoop=1;jettySize=auto;html=1;entryX=0;entryY=0.5;entryDx=0;entryDy=0;" edge="1" parent="1" source="s89FVdqCnXC3zbDjaw7U-1" target="s89FVdqCnXC3zbDjaw7U-2">
          <mxGeometry relative="1" as="geometry" />
        </mxCell>
        <mxCell id="s89FVdqCnXC3zbDjaw7U-1" value="问题" style="rounded=1;whiteSpace=wrap;html=1;" vertex="1" parent="1">
          <mxGeometry x="96" y="167" width="120" height="60" as="geometry" />
        </mxCell>
        <mxCell id="s89FVdqCnXC3zbDjaw7U-6" style="edgeStyle=orthogonalEdgeStyle;rounded=0;orthogonalLoop=1;jettySize=auto;html=1;entryX=0;entryY=0.5;entryDx=0;entryDy=0;" edge="1" parent="1" source="s89FVdqCnXC3zbDjaw7U-2" target="s89FVdqCnXC3zbDjaw7U-3">
          <mxGeometry relative="1" as="geometry" />
        </mxCell>
        <mxCell id="s89FVdqCnXC3zbDjaw7U-2" value="猜想" style="rounded=1;whiteSpace=wrap;html=1;" vertex="1" parent="1">
          <mxGeometry x="263" y="167" width="120" height="60" as="geometry" />
        </mxCell>
        <mxCell id="s89FVdqCnXC3zbDjaw7U-7" style="edgeStyle=orthogonalEdgeStyle;rounded=0;orthogonalLoop=1;jettySize=auto;html=1;entryX=0;entryY=0.5;entryDx=0;entryDy=0;" edge="1" parent="1" source="s89FVdqCnXC3zbDjaw7U-3" target="s89FVdqCnXC3zbDjaw7U-4">
          <mxGeometry relative="1" as="geometry" />
        </mxCell>
        <mxCell id="s89FVdqCnXC3zbDjaw7U-3" value="实时" style="rounded=1;whiteSpace=wrap;html=1;" vertex="1" parent="1">
          <mxGeometry x="430" y="167" width="120" height="60" as="geometry" />
        </mxCell>
        <mxCell id="s89FVdqCnXC3zbDjaw7U-8" style="edgeStyle=orthogonalEdgeStyle;rounded=0;orthogonalLoop=1;jettySize=auto;html=1;entryX=0.5;entryY=1;entryDx=0;entryDy=0;" edge="1" parent="1" source="s89FVdqCnXC3zbDjaw7U-4" target="s89FVdqCnXC3zbDjaw7U-2">
          <mxGeometry relative="1" as="geometry">
            <Array as="points">
              <mxPoint x="657" y="258" />
              <mxPoint x="323" y="258" />
            </Array>
          </mxGeometry>
        </mxCell>
        <mxCell id="s89FVdqCnXC3zbDjaw7U-11" style="edgeStyle=orthogonalEdgeStyle;rounded=0;orthogonalLoop=1;jettySize=auto;html=1;entryX=0.5;entryY=1;entryDx=0;entryDy=0;" edge="1" parent="1" source="s89FVdqCnXC3zbDjaw7U-4" target="s89FVdqCnXC3zbDjaw7U-10">
          <mxGeometry relative="1" as="geometry" />
        </mxCell>
        <mxCell id="s89FVdqCnXC3zbDjaw7U-4" value="验证" style="rounded=1;whiteSpace=wrap;html=1;" vertex="1" parent="1">
          <mxGeometry x="597" y="167" width="120" height="60" as="geometry" />
        </mxCell>
        <mxCell id="s89FVdqCnXC3zbDjaw7U-10" value="finish" style="text;html=1;strokeColor=none;fillColor=none;align=center;verticalAlign=middle;whiteSpace=wrap;rounded=0;" vertex="1" parent="1">
          <mxGeometry x="637" y="104" width="40" height="20" as="geometry" />
        </mxCell>
      </root>
    </mxGraphModel>
  </diagram>
</mxfile>
